# xmcd
#
# Track frame offsets: 
#        150
#        20405
#        43745
#        61962
#        87630
#        108810
#        131567
#        158275
#        177575
#        197262
#
# Disc length: 2907 seconds
#
# Revision: 0
# Processed by: cddbd v1.5.2PL0 Copyright (c) Steve Scherf et al.
# Submitted via: ExactAudioCopy v1.0b3
#
DISCID=790b590a
DTITLE=Duy Khanh - Som Muon Toi Cung Ve
DYEAR=1991
DGENRE=
TTITLE0=Hat tren dinh deo
TTITLE1=Nuoc mat ngay ve
TTITLE2=Huong Lan - Nguoi nuoi hi vong
TTITLE3=Ve duoi mai nha
TTITLE4=Le Uyen - Khi toi ve
TTITLE5=Som muon toi cung ve
TTITLE6=Xin mat troi ngu yen
TTITLE7=Thanh Huyen - Duong ve que huong
TTITLE8=Thien Trang - Ve ben xua
TTITLE9=Hen mot mua Xuan
EXTD=
EXTT0=
EXTT1=
EXTT2=
EXTT3=
EXTT4=
EXTT5=
EXTT6=
EXTT7=
EXTT8=
EXTT9=
PLAYORDER=
